<?xml version="1.0" encoding="UTF-8" standalone="no"?>
<svg
   id="Layer_1"
   data-name="Layer 1"
   viewBox="0 0 400 300"
   width="406"
   height="306"
   class="illustration styles_illustrationTablet__1DWOa"
   version="1.1"
   sodipodi:docname="Career _Two Color.svg"
   inkscape:version="1.1.1 (3bf5ae0d25, 2021-09-20)"
   xmlns:inkscape="http://www.inkscape.org/namespaces/inkscape"
   xmlns:sodipodi="http://sodipodi.sourceforge.net/DTD/sodipodi-0.dtd"
   xmlns="http://www.w3.org/2000/svg"
   xmlns:svg="http://www.w3.org/2000/svg">
  <defs
     id="defs105" />
  <sodipodi:namedview
     id="namedview103"
     pagecolor="#ffffff"
     bordercolor="#666666"
     borderopacity="1.0"
     inkscape:pageshadow="2"
     inkscape:pageopacity="0.0"
     inkscape:pagecheckerboard="0"
     showgrid="false"
     inkscape:zoom="2.6059113"
     inkscape:cx="202.80813"
     inkscape:cy="152.92155"
     inkscape:window-width="1920"
     inkscape:window-height="1017"
     inkscape:window-x="-8"
     inkscape:window-y="-8"
     inkscape:window-maximized="1"
     inkscape:current-layer="Layer_1" />
  <path
     d="M238.19,145.84l-15.82-.1-18.76,29.09a52.25,52.25,0,0,0-3,51.26l8.52,17.44h82.67l.19-37.22.66-56.55Z"
     opacity="0.08"
     id="path32" />
  <path
     d="M242.15,93.21s-15,.52-21.79,27c-4.46,17.34-62.52,19.3-62.52,19.3v6.31h62.34a26,26,0,0,0,21.28-10.73,22.82,22.82,0,0,0,2.11-3.62C247.69,122.52,256.35,98,242.15,93.21Z"
     fill="#68e1fd"
     id="path2" />
  <path
     d="M242.15,93.21s-15,.52-21.79,27c-4.46,17.34-62.52,19.3-62.52,19.3v6.31h62.34a26,26,0,0,0,21.28-10.73,22.82,22.82,0,0,0,2.11-3.62C247.69,122.52,256.35,98,242.15,93.21Z"
     opacity="0.08"
     id="path4"
     style="fill:#f25f3a;fill-opacity:1" />
  <ellipse
     cx="196.31"
     cy="250.7"
     rx="157.65"
     ry="19.11"
     fill="#e6e6e6"
     opacity="0.45"
     id="ellipse6" />
  <path
     d="M228.49,247.06s-.68,3.56-3.68,4.3-3.33,3.83-.47,4.18,9.35-4.29,9.35-4.29l-1.13-5.53Z"
     fill="#68e1fd"
     id="path8" />
  <path
     d="M254.2,247.06s-.68,3.56-3.68,4.3-3.33,3.83-.47,4.18,9.35-4.29,9.35-4.29l-1.13-5.53Z"
     fill="#68e1fd"
     id="path10" />
  <polygon
     points="128.22 127.19 124.65 144.48 144.65 144.48 141.93 124.61 128.22 127.19"
     fill="#c9c9c9"
     id="polygon12" />
  <rect
     x="92.37"
     y="71.39"
     width="79.33"
     height="53.88"
     fill="#24285b"
     id="rect14" />
  <rect
     x="92.37"
     y="120.64"
     width="79.33"
     height="10.2"
     fill="#e6e6e6"
     id="rect16" />
  <rect
     x="83.32"
     y="151.98"
     width="208.63"
     height="91.55"
     fill="#c9c9c9"
     id="rect18" />
  <rect
     x="83.32"
     y="145.84"
     width="208.63"
     height="14.36"
     fill="#e6e6e6"
     id="rect20" />
  <rect
     x="272.32"
     y="199.6"
     width="8.84"
     height="47.65"
     fill="#ffd200"
     id="rect22" />
  <rect
     x="272.32001"
     y="199.60001"
     width="8.840394"
     height="47.650002"
     opacity="0.08"
     id="rect24" />
  <rect
     x="83.32"
     y="160.2"
     width="10.6"
     height="83.33"
     fill="#e6e6e6"
     id="rect26" />
  <rect
     x="93.91"
     y="160.2"
     width="44.25"
     height="83.33"
     fill="#e6e6e6"
     opacity="0.61"
     id="rect28" />
  <rect
     x="281.17"
     y="160.2"
     width="10.6"
     height="83.33"
     fill="#e6e6e6"
     id="rect30" />
  <circle
     cx="134.99"
     cy="125.38"
     r="2.95"
     fill="#a5a5a5"
     id="circle34" />
  <rect
     x="98.59"
     y="166.66"
     width="34.9"
     height="17.25"
     fill="#c9c9c9"
     id="rect36" />
  <rect
     x="98.59"
     y="193.62"
     width="34.9"
     height="17.25"
     fill="#c9c9c9"
     id="rect38" />
  <circle
     cx="115.39"
     cy="175.63"
     r="2.64"
     fill="#a5a5a5"
     id="circle40" />
  <circle
     cx="115.39"
     cy="202.24"
     r="2.64"
     fill="#a5a5a5"
     id="circle42" />
  <rect
     x="109.57"
     y="141.39"
     width="41.63"
     height="4.45"
     fill="#a5a5a5"
     id="rect44" />
  <path
     d="M257,173s-9.78-64.87,13-76,59.56-.84,42.81,79.38l-.83,8.92a23.22,23.22,0,0,1-23.11,21.06H242.59c-8.49,0-11.08-11.63-3.35-15.13a40.69,40.69,0,0,1,8.28-2.67,11.4,11.4,0,0,0,8.92-10Z"
     fill="#ffd200"
     id="path46"
     style="fill:#000000;fill-opacity:1" />
  <path
     d="m 242.9165,58.156263 a 54.732157,54.732157 0 0 0 0.96509,14.558164 4.4001644,4.4001644 0 0 0 5.4307,3.075209 9.8144931,9.8144931 0 0 0 7.49173,-7.442658 l 2.48633,-7.704377 a 7.8515945,7.8515945 0 0 0 -3.59864,-8.358677 c -5.0054,-3.484144 -12.6607,0.52344 -12.77521,5.872339 z"
     fill="#f4a28c"
     id="path48"
     style="stroke-width:1.63575" />
  <polygon
     points="253.92 64.47 258.98 81.3 249.5 83.42 249.63 70.32 253.92 64.47"
     fill="#f4a28c"
     id="polygon50" />
  <path
     d="m 242.81836,63.734166 -2.38819,3.418716 a 1.406744,1.406744 0 0 0 0.91602,2.191903 l 3.36964,0.572512 z"
     fill="#f4a28c"
     id="path52"
     style="stroke-width:1.63575" />
  <path
     d="M249.64,72.06s1.22-.25,3.35-2.36c0,0,.46,3.48-3.42,6.22Z"
     fill="#ce8172"
     opacity="0.31"
     id="path54" />
  <path
     d="m 254.62846,63.521519 a 3.2714977,3.2714977 0 0 1 -2.96069,3.009778 12.709769,12.709769 0 0 0 -8.73491,3.90944 c -3.84401,4.678242 2.66627,10.452435 7.80252,7.344512 5.13625,-3.107922 10.37065,-14.72174 10.37065,-14.72174 0,0 3.12429,-9.356483 0.34351,-13.903865 -2.78078,-4.547382 -17.37165,-8.178744 -20.34872,1.979256 -1.91382,6.461208 4.25295,7.589875 8.94756,7.589875 a 4.5800968,4.5800968 0 0 1 4.58008,4.907246 z"
     fill="#24285b"
     id="path56"
     style="stroke-width:1.63575" />
  <path
     d="m 251.55326,63.243442 c 0,0 0,-3.386 2.55176,-3.156995 2.55178,0.229004 2.55178,5.103536 -0.8833,5.610618 z"
     fill="#f4a28c"
     id="path58"
     style="stroke-width:1.63575" />
  <path
     d="M247.72,83.85,255.87,82s51.35-6.32,44.76,42.09c-6.18,45.44-10.7,57.3-10.7,57.3L243.65,183s-2.58-38.51-10-48.18S211.55,96.57,247.72,83.85Z"
     fill="#68e1fd"
     id="path60"
     style="fill:#f25f3a;fill-opacity:1" />
  <path
     d="M244.66,85s-3.39,46.38,11.21,67c0,0-.83-48.86,11.72-69.94C267.59,82,255.87,78.8,244.66,85Z"
     fill="#fff"
     id="path62" />
  <path
     d="M241.69,164.31,220,186.49a30.75,30.75,0,0,0-5.92,34.41l12.2,26.35,6.28-1.53-6-23.68a22.34,22.34,0,0,1,10.3-24.78l24.8-14.63Z"
     fill="#24285b"
     id="path64" />
  <path
     d="m 241.69,164.31 52.23046,-0.16912 c 0,0 -1.39046,21.16912 -7.45046,25.30912 -3.36,2.26 -15.84,6.75 -26.3,10.3 -8.55749,2.89892 -13.16174,12.17 -10.3,20.74 l 8.4,25.21 -7.13,1.88 -15.38,-30.2 c -4.5297,-8.86967 -2.32184,-19.69317 5.32,-26.08 l 15.36,-12.85 z"
     fill="#24285b"
     id="path66"
     sodipodi:nodetypes="ccccccccccc" />
  <path
     d="M272.09,100.93a12,12,0,0,1,18.65-10.8,27.11,27.11,0,0,1,8.8,9.56c4.39,8.13,6.65,26.18,7.78,40.17a28.73,28.73,0,0,1-14.71,27.47l-30,16.58-4.33-5.64,22.78-17.79a15.45,15.45,0,0,0,4.09-19.58C279.84,131.21,273.2,116.31,272.09,100.93Z"
     fill="#68e1fd"
     id="path68" />
  <path
     d="M272.09,100.93a12,12,0,0,1,18.65-10.8,27.11,27.11,0,0,1,8.8,9.56c4.39,8.13,6.65,26.18,7.78,40.17a28.73,28.73,0,0,1-14.71,27.47l-30,16.58-4.33-5.64,22.78-17.79a15.45,15.45,0,0,0,4.09-19.58C279.84,131.21,273.2,116.31,272.09,100.93Z"
     fill="#fff"
     opacity="0.19"
     id="path70"
     style="fill:#f25f3a;fill-opacity:1" />
  <path
     d="M258.27,178.27S247.93,184,253.65,187s8-4.36,8-4.36Z"
     fill="#f4a28c"
     id="path72" />
  <path
     d="M244.66,85l-9.23,26.13,7.33,12.65L240,136l15.83,16S242.76,140.23,244.66,85Z"
     fill="#fff"
     opacity="0.27"
     id="path74" />
  <path
     d="M249.6,83.21c.06-1.34.93-1.09,2.21-1.46s2.61-1.79,3.71-.56c2.14,2.38-1.64,6.87-1.64,6.87h-3.51A20.1,20.1,0,0,1,249.6,83.21Z"
     fill="#24285b"
     id="path76" />
  <path
     d="M250.37,88.06h3.51s.33,27.16,2.64,43.21L255.87,152s-7.56-10.09-8.76-23C247.11,129,247.47,103.53,250.37,88.06Z"
     fill="#24285b"
     id="path78" />
  <path
     d="M244.66,85l4.28,3,3.43-5L256,87.53,267.59,82S253.52,76.33,244.66,85Z"
     fill="#68e1fd"
     id="path80" />
  <path
     d="M244.66,85l4.28,3,3.43-5L256,87.53,267.59,82S253.52,76.33,244.66,85Z"
     fill="#fff"
     opacity="0.55"
     id="path82"
     style="fill:#f25f3a;fill-opacity:1" />
  <path
     d="M267.59,82l1.94,34.55L260.46,122l5.35,11.25L255.87,152S255.26,102.84,267.59,82Z"
     fill="#fff"
     opacity="0.27"
     id="path84" />
  <path
     d="M157.84,140.92s-10-1.79-9.06,4.92h9.06Z"
     fill="#f4a28c"
     id="path86" />
  <rect
     x="100.62"
     y="220.11"
     width="29.77"
     height="23.42"
     fill="#c9c9c9"
     id="rect88" />
  <polygon
     points="272.32 239.65 281.17 239.65 295.43 255.55 259.4 255.55 272.32 239.65"
     fill="#ffd200"
     id="polygon90" />
  <polygon
     points="272.32 239.65 281.17 239.65 295.43 255.55 259.4 255.55 272.32 239.65"
     fill="#fff"
     opacity="0.33"
     id="polygon92" />
  <rect
     x="105.68"
     y="81.19"
     width="54.89"
     height="12.01"
     fill="#68e1fd"
     id="rect94"
     style="fill:#f25f3a;fill-opacity:1" />
  <rect
     x="106.96"
     y="98.33"
     width="18.13"
     height="16.24"
     fill="#ffd200"
     id="rect96" />
  <rect
     x="129.17"
     y="98.33"
     width="31.4"
     height="5.01"
     fill="#fff"
     id="rect98" />
  <rect
     x="129.17"
     y="106.84"
     width="31.4"
     height="5.01"
     fill="#fff"
     opacity="0.14"
     id="rect100" />
</svg>
