<?xml version="1.0" encoding="UTF-8" standalone="no"?>
<svg
   viewBox="0 0 451.75351 550.77947"
   version="1.1"
   id="svg200"
   sodipodi:docname="Chat_SVG.svg"
   width="451.75351"
   height="550.77948"
   inkscape:version="1.1.1 (3bf5ae0d25, 2021-09-20)"
   xmlns:inkscape="http://www.inkscape.org/namespaces/inkscape"
   xmlns:sodipodi="http://sodipodi.sourceforge.net/DTD/sodipodi-0.dtd"
   xmlns="http://www.w3.org/2000/svg"
   xmlns:svg="http://www.w3.org/2000/svg"
   xmlns:rdf="http://www.w3.org/1999/02/22-rdf-syntax-ns#"
   xmlns:cc="http://creativecommons.org/ns#"
   xmlns:dc="http://purl.org/dc/elements/1.1/">
  <sodipodi:namedview
     id="namedview202"
     pagecolor="#ffffff"
     bordercolor="#666666"
     borderopacity="1.0"
     inkscape:pageshadow="2"
     inkscape:pageopacity="0.0"
     inkscape:pagecheckerboard="0"
     showgrid="false"
     width="200px"
     scale-x="1"
     fit-margin-top="0"
     fit-margin-left="0"
     fit-margin-right="0"
     fit-margin-bottom="0"
     inkscape:zoom="1.664"
     inkscape:cx="322.41587"
     inkscape:cy="329.6274"
     inkscape:window-width="1920"
     inkscape:window-height="1017"
     inkscape:window-x="-8"
     inkscape:window-y="-8"
     inkscape:window-maximized="1"
     inkscape:current-layer="svg200" />
  <defs
     id="defs9">
    <style
       id="style2">.cls-1{fill:#d6d8e5;opacity:0.4;}.cls-2{fill:#b1b4c4;}.cls-3{fill:#616e84;}.cls-4{fill:#20232d;}.cls-5,.cls-7{fill:#fff;}.cls-6{fill:#2b303f;}.cls-7{opacity:0.1;}.cls-8{fill:#757b89;}.cls-9{fill:#e9eaf2;}.cls-10{fill:#d9dae2;}.cls-11{fill:#38226d;}.cls-12{fill:#9c73ff;}.cls-13{fill:#8c50ff;}.cls-14{fill:#ffcea9;}.cls-15{fill:#f4f4f4;}.cls-16{fill:#3a2c6d;}.cls-17{fill:#ededed;}.cls-18{fill:#2b2a30;}.cls-19{fill:#bf4b4b;}.cls-20{fill:#e26161;}.cls-21{opacity:0.5;fill:url(#Безымянный_градиент_15);}.cls-22{fill:#ff7b7b;}.cls-23{fill:#e26d6d;}.cls-24{opacity:0.2;}.cls-25{fill:#dd990e;}.cls-26{fill:#f9cb07;}.cls-27{fill:#cc8b09;}.cls-28{fill:#4399ff;}.cls-29{fill:#70b6fc;}.cls-30{fill:#efbd9c;}</style>
    <linearGradient
       id="Безымянный_градиент_15"
       x1="-2093.1499"
       y1="3284.72"
       x2="-2093.1499"
       y2="3269.47"
       gradientTransform="matrix(0.87,0.5,-1,0.58,5177.07,-498.3)"
       gradientUnits="userSpaceOnUse">
      <stop
         offset="0.21"
         stop-color="#fff"
         stop-opacity="0"
         id="stop4" />
      <stop
         offset="1"
         stop-color="#fff"
         stop-opacity="0.2"
         id="stop6" />
    </linearGradient>
  </defs>
  <title
     id="title11">Chat_SVG</title>
  <g
     id="Слой_2"
     data-name="Слой 2"
     transform="matrix(1.1015986,0,0,1.1015986,0,-0.01982098)">
    <g
       id="Слой_1-2"
       data-name="Слой 1">
      <path
         class="cls-1"
         d="m 245.87,412.19 -87.81,-50.56 a 3.25,3.25 0 0 1 0.13,-5.69 l 11.05,-5.69 a 3.25,3.25 0 0 1 3.1,0.07 l 90.76,52.26 a 3.24,3.24 0 0 1 -0.13,5.69 l -8,4.13 a 9.48,9.48 0 0 1 -9.1,-0.21 z"
         id="path13" />
      <path
         class="cls-2"
         d="m 251.25,402.67 -74.82,-43.2 C 170.09,355.81 165,346 165,337.55 V 128.83 c 0,-8.45 5.14,-12.33 11.48,-8.67 l 74.82,43.2 c 6.34,3.66 11.48,13.47 11.48,21.92 V 394 c -0.05,8.45 -5.19,12.33 -11.53,8.67 z"
         id="path15" />
      <polygon
         class="cls-2"
         points="252.78,393.69 252.54,406.44 258.47,403.44 "
         id="polygon17" />
      <polygon
         class="cls-2"
         points="168.15,127.42 163.79,122.24 169.25,119.38 "
         id="polygon19" />
      <path
         class="cls-3"
         d="m 246.48,405.06 -74.82,-43.2 c -6.34,-3.66 -11.48,-13.48 -11.48,-21.93 V 131.22 c 0,-8.45 5.14,-12.34 11.48,-8.68 l 74.82,43.2 c 6.34,3.66 11.48,13.48 11.48,21.93 v 208.71 c 0.04,8.45 -5.14,12.34 -11.48,8.68 z"
         id="path21" />
      <path
         class="cls-4"
         d="m 257.16,188.2 v 208.71 c 0,8.46 -5.13,12.34 -11.47,8.68 l -29.35,-16.94 -9.12,-5.27 -36.36,-21 c -6.34,-3.66 -11.47,-13.47 -11.47,-21.93 v -208.7 c 0,-8.46 5.13,-12.33 11.47,-8.68 l 74.83,43.2 c 6.31,3.66 11.47,13.47 11.47,21.93 z"
         id="path23" />
      <path
         class="cls-5"
         d="m 251.77,186.08 v 203.28 c 0,5.12 -3.59,7.2 -8,4.63 l -23.39,-13.5 -2.07,-1.19 -0.69,-0.41 -5.08,-2.89 -14.64,-8.43 v 0 l -6.07,-3.5 -2.44,-1.41 -16.58,-9.57 c -4.43,-2.56 -8,-8.79 -8,-13.92 V 135.86 c 0,-5.12 3.59,-7.2 8,-4.64 L 202,148.09 v 0.08 a 13.83,13.83 0 0 0 6.27,10.83 c 3.46,2 6.26,0.37 6.26,-3.61 0,0 0,-0.06 0,-0.09 l 29.22,16.87 c 4.43,2.56 8.02,8.83 8.02,13.91 z"
         id="path25" />
      <ellipse
         class="cls-6"
         cx="208.28"
         cy="153.99001"
         rx="1.9400001"
         ry="3.3499999"
         transform="matrix(0.87,-0.5,0.5,0.87,-49.09,124.78)"
         id="ellipse27" />
      <path
         class="cls-7"
         d="m 208.28,155.14 a 2.21,2.21 0 0 1 -1,-1.72 c 0,-0.64 0.45,-0.89 1,-0.58 a 2.2,2.2 0 0 1 1,1.73 c -0.01,0.63 -0.45,0.89 -1,0.57 z"
         id="path29" />
      <path
         class="cls-8"
         d="m 260.2,215.66 v 0 c -0.61,0.36 -1.11,0 -1.11,-0.83 v -8.9 a 2.64,2.64 0 0 1 1.11,-2.11 v 0 c 0.61,-0.36 1.1,0 1.1,0.83 v 8.9 a 2.63,2.63 0 0 1 -1.1,2.11 z"
         id="path31" />
      <path
         class="cls-8"
         d="m 260.2,230.24 v 0 c -0.61,0.36 -1.11,0 -1.11,-0.83 v -8.9 a 2.64,2.64 0 0 1 1.11,-2.11 v 0 c 0.61,-0.36 1.1,0 1.1,0.83 v 8.9 a 2.63,2.63 0 0 1 -1.1,2.11 z"
         id="path33" />
      <path
         class="cls-9"
         d="M 237.67,207.53 176.9,172.44 a 7.38,7.38 0 0 1 -3.09,-5.9 V 149.8 c 0,-2.27 1.38,-3.32 3.09,-2.33 l 60.77,35.08 a 7.43,7.43 0 0 1 3.09,5.91 v 16.73 c 0,2.28 -1.39,3.32 -3.09,2.34 z"
         id="path35" />
      <polygon
         class="cls-9"
         points="182.39,175.61 173.81,164.71 173.81,180.17 "
         id="polygon37" />
      <polygon
         class="cls-10"
         points="186.17,159.36 232,185.82 232,190.58 186.17,164.12 "
         id="polygon39" />
      <polygon
         class="cls-10"
         points="186.17,166.5 208.83,179.58 208.83,184.34 186.17,171.25 "
         id="polygon41" />
      <path
         class="cls-9"
         d="M 221.19,283.34 176.9,257.77 a 7.38,7.38 0 0 1 -3.09,-5.9 v -8.71 c 0,-2.27 1.38,-3.32 3.09,-2.33 l 44.29,25.57 a 7.41,7.41 0 0 1 3.09,5.9 v 8.7 c 0,2.28 -1.39,3.33 -3.09,2.34 z"
         id="path43" />
      <polygon
         class="cls-9"
         points="182.39,260.65 173.81,249.75 173.81,265.21 "
         id="polygon45" />
      <polygon
         class="cls-10"
         points="183.13,250.96 217.68,270.91 217.68,275.67 183.13,255.72 "
         id="polygon47" />
      <path
         class="cls-9"
         d="m 198.4,231.43 39.27,22.67 c 1.7,1 3.09,-0.06 3.09,-2.33 V 235 a 7.4,7.4 0 0 0 -3.09,-5.9 L 198.4,206.45 c -1.71,-1 -3.09,0.07 -3.09,2.34 v 16.74 a 7.4,7.4 0 0 0 3.09,5.9 z"
         id="path49" />
      <polygon
         class="cls-9"
         points="232.17,250.93 240.76,249.94 240.76,265.4 "
         id="polygon51" />
      <polygon
         class="cls-10"
         points="229.36,230.87 203.42,215.9 203.42,220.65 229.36,235.63 "
         id="polygon53" />
      <polygon
         class="cls-10"
         points="217.32,231.06 203.42,223.03 203.42,227.79 217.32,235.82 "
         id="polygon55" />
      <path
         class="cls-9"
         d="m 176.9,307.62 60.41,34.88 c 1.71,1 3.09,-0.06 3.09,-2.34 v -16.73 a 7.4,7.4 0 0 0 -3.09,-5.91 L 176.9,282.64 c -1.71,-1 -3.09,0.06 -3.09,2.34 v 16.74 a 7.4,7.4 0 0 0 3.09,5.9 z"
         id="path57" />
      <polygon
         class="cls-9"
         points="231.82,339.33 240.4,338.34 240.4,353.8 "
         id="polygon59" />
      <polygon
         class="cls-10"
         points="225.82,317.43 183.08,292.75 183.08,297.51 225.82,322.19 "
         id="polygon61" />
      <polygon
         class="cls-10"
         points="222.9,322.88 183.08,299.89 183.08,304.65 222.9,327.64 "
         id="polygon63" />
      <path
         class="cls-9"
         d="M 237.67,379 176.9,343.9 a 8,8 0 0 1 -3.61,-6.25 v -8.32 c 0,-2.3 1.62,-3.23 3.61,-2.08 l 60.77,35.08 a 8,8 0 0 1 3.6,6.25 v 8.32 c 0,2.3 -1.62,3.23 -3.6,2.1 z M 176.9,328.44 c -1.42,-0.82 -2.58,-0.16 -2.58,1.48 v 8.33 a 5.7,5.7 0 0 0 2.58,4.46 l 60.77,35.08 c 1.42,0.82 2.57,0.16 2.57,-1.48 V 368 a 5.69,5.69 0 0 0 -2.57,-4.46 z"
         id="path65" />
      <polygon
         class="cls-9"
         points="178.27,332.6 179.3,333.19 179.3,341.12 178.27,340.53 "
         id="polygon67" />
      <g
         id="Men_8">
        <ellipse
           class="cls-1"
           cx="361.95001"
           cy="291.10999"
           rx="34.639999"
           ry="20"
           id="ellipse69" />
        <path
           class="cls-11"
           d="m 381,286 c -2.41,2 -6,0.17 -6.14,0.35 a 106.6,106.6 0 0 1 -8.89,7.4 c -1.5,1.18 -3.84,2.76 -3.42,5 0.76,4.06 7.26,2.81 9.71,1.57 2.45,-1.24 4.45,-3.3 6.77,-4.74 1.66,-1 3.29,-1.56 3.55,-3.65 0.17,-1.24 -1.13,-5.99 -1.58,-5.93 z"
           id="path71" />
        <path
           class="cls-12"
           d="m 382.56,291.11 c -0.31,2 -1.92,2.55 -3.56,3.57 -2.36,1.46 -4.44,3.58 -6.89,4.82 -2.26,1.14 -7.91,2.28 -9.5,-0.62 0.86,3.92 7.24,2.69 9.67,1.46 2.43,-1.23 4.45,-3.3 6.77,-4.74 1.66,-1 3.29,-1.56 3.55,-3.65 a 4.36,4.36 0 0 0 -0.04,-0.84 z"
           id="path73" />
        <path
           class="cls-11"
           d="m 360.12,278.22 c -2.41,2 -6.63,-0.18 -6.8,0 a 94.73,94.73 0 0 1 -7.95,7.17 c -1.5,1.18 -3.84,2.76 -3.41,5 0.75,4.06 7.25,2.81 9.7,1.57 2.45,-1.24 4.46,-3.3 6.78,-4.74 1.65,-1 3.28,-1.56 3.54,-3.65 0.15,-1.24 -1.43,-5.4 -1.86,-5.35 z"
           id="path75" />
        <path
           class="cls-12"
           d="m 361.9,283 c -0.31,2 -1.92,2.55 -3.56,3.57 -2.36,1.47 -4.44,3.58 -6.89,4.82 -2.26,1.15 -7.91,2.29 -9.5,-0.61 0.86,3.91 7.25,2.68 9.67,1.45 2.42,-1.23 4.45,-3.29 6.78,-4.74 1.65,-1 3.28,-1.56 3.54,-3.65 A 4.39,4.39 0 0 0 361.9,283 Z"
           id="path77" />
        <path
           id="_Контур_"
           data-name="&lt;Контур&gt;"
           class="cls-13"
           d="m 381.1,197 c -0.11,3.65 -1.25,19.47 -1.75,27.84 -0.5,8.37 -0.63,18.64 -0.63,18.64 0,0 1.45,6.1 2.38,13.27 0.93,7.17 0,29.8 0,29.8 a 5.69,5.69 0 0 1 -6.17,0 c 0,0 -3.85,-18.11 -5.64,-26.27 -1.79,-8.16 -2.09,-12.86 -3,-17.92 -1.12,-6.12 -3.54,-34.68 -3.54,-34.68 l -1,0.06 -2.56,32.26 a 36.25,36.25 0 0 1 1.63,7.32 c 0.7,5.25 -0.74,31.67 -0.74,31.67 a 6.4,6.4 0 0 1 -6.67,-0.28 c 0,0 -6.44,-35 -6.44,-40.31 0,-3.52 0.6,-50 0.6,-50 z" />
        <path
           id="_Контур_2"
           data-name="&lt;Контур&gt;"
           class="cls-14"
           d="m 372.37,126.63 c 0,0 -0.41,7.94 -0.23,8.65 0.18,0.71 3.64,3 4.65,3.86 1.01,0.86 -5.49,7.25 -8.65,8.7 -3.16,1.45 -13.18,-2.37 -13.35,-7.29 -0.17,-4.92 1.71,-9.05 3.25,-9.27 1.54,-0.22 14.33,-4.65 14.33,-4.65 z" />
        <path
           class="cls-14"
           d="m 353.21,133.72 c 0,0 -2.15,-3.29 -10,15 -7.85,18.29 -12.69,23.09 -16.21,27.64 -3.18,4.14 -4.75,-2.44 -4.75,-2.44 0,0 2.53,-3.19 0.42,-3.19 -1.18,0.07 -2.83,2.5 -2.83,2.5 l 2.69,4.3 7,3.55 c 0,0 8.57,-7.88 11.34,-12.74 3,-3.83 7.49,-11.43 7.49,-11.43 z"
           id="path81" />
        <path
           class="cls-4"
           d="m 319.87,176.94 c -0.08,-0.06 -2.17,-2.49 -2.17,-2.49 0,0 -1.25,-1.09 0.11,-1.17 1.36,-0.08 6.21,-0.09 6.21,-0.09 a 2,2 0 0 1 1.39,0.39 c 0.61,0.48 7.64,9.38 7.64,9.38 0,0 0.31,0.54 -0.6,0.6 -0.91,0.06 -6.8,0 -6.8,0 z"
           id="path83" />
        <path
           class="cls-14"
           d="m 319.3,175.44 c 0,0 -2.07,-0.39 -1.59,1.6 0.48,1.99 3.45,4.05 3.45,4.05 l 3.1,2.6 a 2.35,2.35 0 0 0 2.54,0 c 0.8,-0.5 1.92,-1.86 0.69,-3.15 -1.23,-1.29 -2.33,-4.12 -5.47,-4 0,0 -0.17,-0.75 -2,-1"
           id="path85" />
        <path
           id="_Контур_3"
           data-name="&lt;Контур&gt;"
           class="cls-15"
           d="m 373.26,136.65 c 0,0 -5.77,8.58 -13.81,9.39 -2.53,-2.5 -2.76,-11.39 0.75,-14.23 0,0 -3.23,-2.61 -5.44,-2.1 a 12.06,12.06 0 0 0 -5.62,6.54 c -1.48,4.53 -2.31,9.75 -2.18,18.18 0.13,8.43 0,34.17 0,34.17 0,0 1.14,5.45 8.41,9.5 7.27,4.05 12.63,4.44 17.63,3.29 4.07,-0.95 7.43,-2.38 8.83,-5.33 -0.36,-5.91 -3,-21.32 -2,-28.75 1,-7.43 2.55,-13 3,-19 0.45,-6 -0.8,-5.89 -3.81,-8 a 46.72,46.72 0 0 0 -5.76,-3.66 z" />
        <path
           id="_Контур_4"
           data-name="&lt;Контур&gt;"
           class="cls-14"
           d="m 376.48,200.49 c 1.2,-1.34 3.26,-8.77 4.44,-13.46 A 47.23,47.23 0 0 0 381.6,171 c -1.06,-6.4 -4,-15.26 -4.83,-18.93 -0.83,-3.67 0.27,-5.23 1.9,-6.71 1.91,-1.74 4.76,-1.22 6.6,3.88 a 101,101 0 0 1 4.81,21.76 50.27,50.27 0 0 1 -1.43,16.43 c -1.23,5 -3,8.62 -5.34,13.2 -0.63,1.24 -2.07,4.73 -3,7.25 -0.93,2.52 -4.92,-6.17 -3.83,-7.39 z" />
        <path
           id="_Контур_5"
           data-name="&lt;Контур&gt;"
           class="cls-14"
           d="m 354.39,114.79 v 0 c 0.95,-6.17 5.39,-10.84 11.75,-10.49 a 12.23,12.23 0 0 1 6.23,22.33 12.46,12.46 0 0 1 -1,2.69 c -2.25,2.63 -9.05,4.26 -11,4 -2.51,-0.36 -3.86,-1.41 -5.06,-4.15 -2.1,-4.86 -1.44,-11.33 -0.92,-14.38 z" />
        <path
           class="cls-16"
           d="m 372.37,126.63 v 0 l -0.58,-5.38 c 0,0 4.39,-11.38 -6,-9.2 -6.86,1.45 -8.58,2.07 -10.66,-2.53 -2.08,-4.6 5.27,-8.73 14,-7.58 A 12.07,12.07 0 0 1 380,114.18 c -0.28,3.39 -1.18,10.24 -7.63,12.45 z"
           id="path90" />
        <path
           class="cls-17"
           d="m 390.14,157.5 c 0,0 -5.66,5.64 -12.37,4 -1,-0.65 -3.26,-13.83 -3.26,-13.83 0,0 0,-7.3 5.6,-7.11 5.6,0.19 10.03,16.94 10.03,16.94 z"
           id="path92" />
        <path
           class="cls-17"
           d="m 347,150.1 c 0,0 -3.67,0.46 -4.89,-1.26 0.22,-3 5.11,-18.3 12.7,-19.13 a 25.8,25.8 0 0 0 -4.74,5.73 C 347.36,139.93 347,150.1 347,150.1 Z"
           id="path94" />
      </g>
      <g
         id="Men_2">
        <ellipse
           class="cls-1"
           cx="34.580002"
           cy="480.04001"
           rx="34.580002"
           ry="19.959999"
           id="ellipse97" />
        <path
           id="_Контур_6"
           data-name="&lt;Контур&gt;"
           class="cls-14"
           d="m 9.22,330.53 c -0.39,3.36 -4.39,17.85 -3.53,22.82 0.86,4.97 14.55,13.27 14.55,13.27 l 1.9,-8.5 -7.59,-7.43 2.05,-14.08 z" />
        <path
           id="_Контур_7"
           data-name="&lt;Контур&gt;"
           class="cls-17"
           d="m 19.81,316.24 a 6,6 0 0 0 -7.62,2.31 c -2,3.34 -4.11,14.78 -4.3,16.74 0,0 2.83,3.9 7.07,3.25 z" />
        <path
           class="cls-18"
           d="m 35.45,477.85 a 11.74,11.74 0 0 0 8.86,-1.07 c 2.14,0.07 13.73,-4.89 15.3,-0.73 1.38,3.65 -3.64,7 -6.32,7.68 -5.85,1.41 -10.18,4.33 -12.53,4.83 -1.75,0.37 -4,0.61 -5.42,-0.77 -1.67,-1.65 -1.53,-7.79 0.11,-9.94 z"
           id="path101" />
        <path
           class="cls-19"
           d="m 40.76,487.55 c 2.35,-0.5 6.68,-3.42 12.53,-4.83 2.25,-0.55 6.12,-3 6.51,-5.94 0.52,3.36 -4,6.34 -6.51,7 -5.85,1.41 -10.18,4.33 -12.53,4.83 -1.75,0.37 -4,0.61 -5.42,-0.77 a 3.34,3.34 0 0 1 -0.76,-1.39 7,7 0 0 0 6.18,1.1 z"
           id="path103" />
        <path
           class="cls-18"
           d="m 16.66,469.41 a 11.74,11.74 0 0 0 8.86,-1.07 c 2.13,0.07 13.72,-4.89 15.3,-0.73 1.38,3.65 -3.64,7 -6.32,7.68 -5.85,1.42 -10.19,4.33 -12.54,4.83 -1.75,0.37 -4,0.61 -5.41,-0.77 -1.68,-1.65 -1.55,-7.76 0.11,-9.94 z"
           id="path105" />
        <path
           class="cls-19"
           d="m 22,479.11 c 2.35,-0.5 6.69,-3.42 12.54,-4.83 2.24,-0.55 6.12,-3 6.51,-5.94 0.52,3.36 -4,6.34 -6.51,7 -5.85,1.42 -10.19,4.33 -12.54,4.83 -1.75,0.37 -4,0.61 -5.41,-0.77 a 3.47,3.47 0 0 1 -0.77,-1.39 7,7 0 0 0 6.18,1.1 z"
           id="path107" />
        <path
           id="_Контур_8"
           data-name="&lt;Контур&gt;"
           class="cls-20"
           d="m 16.43,437.93 a 70,70 0 0 1 2.67,-12.69 c 0,0 -0.79,-10.95 -1.19,-21.34 -0.46,-11.78 -4.55,-22.15 -1.32,-31.56 L 53,380.43 c 0,0 -2.2,47 -2.69,52.67 a 105.84,105.84 0 0 1 -1.63,13.19 c -1.66,9.12 -4.36,30.81 -4.36,30.81 -3.84,2.24 -8.89,1 -8.89,1 0,0 0.28,-27.44 0.53,-34 0.3,-8 0.54,-7.41 0.54,-7.41 l -1.2,-20 -0.78,-9.94 c 0,0 -1,7.3 -1.66,13.82 -0.58,5.68 -2,10.82 -3.48,21.4 -1.33,9.18 -3.49,27.62 -3.49,27.62 -3.84,2.23 -9.06,0.38 -9.06,0.38 0,0 -1.44,-24.08 -0.4,-32.04 z" />
        <path
           id="_Контур_9"
           data-name="&lt;Контур&gt;"
           class="cls-14"
           d="m 21.74,316.44 c 2.77,0.14 4.83,0.85 5.17,0 a 36.35,36.35 0 0 0 0.64,-4.33 c -0.32,-0.81 -0.6,-1.67 -0.6,-1.67 -3.47,-2.14 -4.57,-5.9 -5,-10.27 -0.78,-7.48 3.26,-14 10.74,-14.81 7,-0.74 12.21,4.21 13.59,11 0.74,3.35 2.22,9.68 0.22,15.19 -1.12,3.08 -2.56,5.53 -4,6 a 36.65,36.65 0 0 1 -4.16,-0.37 v 0 c 0,0 -0.37,2.07 -0.63,3.41 -0.26,1.34 -0.15,2 2.5,3.67 2.65,1.67 -4,5 -8.37,4.67 -4.37,-0.33 -9.26,-3 -10.61,-5.78 -1.52,-3.1 -1.39,-6.8 0.51,-6.71 z" />
        <path
           id="_Контур_10"
           data-name="&lt;Контур&gt;"
           class="cls-15"
           d="m 25.74,316.85 c -0.76,1.92 1.19,4.26 6.39,5.89 5.2,1.63 5.67,-0.47 5.67,-0.47 0,0 7.62,3.48 10.1,5.21 3.13,2.18 4.51,8.5 4.93,19.16 0.49,12.33 0.53,30.63 0.12,33.79 0,0 -5.83,5.81 -13.3,5.2 -7.47,-0.61 -20,-7.22 -23.07,-12.32 0.08,-10.82 1.35,-12.58 -0.4,-18.81 -4,-14.26 -6.12,-20.1 -4.18,-29.58 1.61,-7.81 3.86,-8.78 7,-8.71 a 65.29,65.29 0 0 1 6.74,0.64 z" />
        <path
           id="_Контур_11"
           data-name="&lt;Контур&gt;"
           class="cls-14"
           d="m 64.56,356.84 c -6.12,1.54 -7.56,-2.32 -8.37,-5.52 -1.94,-7.75 -3,-14.74 -4.45,-19.14 -1.71,-5.18 -3.5,-6 -6,-7 -3,-1.18 -5.5,1.32 -4.52,7.92 1.17,7.8 2.7,13.28 5.61,22.52 0.77,2.41 2.48,6.69 5,8.76 3.16,2.56 7.92,2.45 15.12,0.66 3.07,-0.77 6.44,-2.6 12.25,-5.31 C 80.78,359 82,358.5 85,357.1 a 20.43,20.43 0 0 0 7.68,-6 c 1.57,-2.27 1.29,-3.72 1,-4.23 -0.29,-0.51 -0.63,-0.13 -1.47,0.82 a 16.58,16.58 0 0 1 -4.41,4.08 c 0,0 1.94,-2 3,-3.3 a 16.72,16.72 0 0 0 2.32,-3.78 c 0.55,-1.33 -0.59,-3.13 -1.46,-2.18 -0.87,0.95 -1.28,1.9 -2.86,3.8 a 16.8,16.8 0 0 1 -2.89,2.69 30.65,30.65 0 0 0 2.61,-4.21 c 1,-2.05 -2.35,-1 -4.27,1 -1.4,1.45 -2.59,2.29 -2.63,1.89 -0.04,-0.4 -2.76,2.53 -4.15,4 -1.39,1.47 -7.08,3.69 -12.91,5.16 z" />
        <path
           id="_Контур_12"
           data-name="&lt;Контур&gt;"
           class="cls-17"
           d="m 43.45,324.11 c 4.09,-0.61 7,1.23 8.79,7.43 1.79,6.2 3.07,11.29 3.07,11.29 a 11.12,11.12 0 0 1 -6.85,4.55 c -4.9,1.18 -6.66,-1.15 -6.66,-1.15 0,0 -1.36,-6.5 -2.2,-10.92 -0.84,-4.42 -1.21,-10.46 3.85,-11.2 z" />
        <path
           class="cls-18"
           d="m 46,295.4 c 0,0 6.46,-9.83 -7.54,-11.83 -10.1,-1.44 -16.59,5.05 -17.34,12.09 -0.72,6.73 3.42,13.71 6.42,16.49 1.46,0.52 4.6,0.82 8.73,-1.06 a 50,50 0 0 0 0.19,-5.51 c 0,0 -4.92,-10.36 9.54,-10.18 z"
           id="path114" />
      </g>
      <path
         class="cls-14"
         d="m 78.82,349.11 c 0,0 -1.59,-2.89 -0.58,-3.61 1.01,-0.72 2.45,2 2.74,3.05 0.29,1.05 -0.11,-0.32 -0.11,-0.32 0,0 -1.09,-3.27 -0.38,-3.9 0.71,-0.63 1.66,0.77 2.61,2.82 0.95,2.05 0.23,-0.17 0.23,-0.17 0,0 -1.57,-3.28 -0.9,-3.74 0.9,-0.6 2.38,1.34 3.26,3.09 0.88,1.75 -1.18,3.83 -1.18,3.83 z"
         id="path117" />
      <g
         id="Mobile">
        <path
           class="cls-2"
           d="M 81.89,354.28 76,350.85 c -0.51,-0.29 -0.44,-0.79 0.14,-1.13 l 14.34,-8.28 a 2.19,2.19 0 0 1 2,-0.08 l 5.94,3.43 c 0.5,0.29 0.44,0.8 -0.14,1.13 l -14.43,8.28 a 2.16,2.16 0 0 1 -1.96,0.08 z"
           id="path119" />
        <polygon
           class="cls-2"
           points="76.25,350.05 75.61,350.36 75.61,349.81 "
           id="polygon121" />
        <polygon
           class="cls-2"
           points="98.16,345.06 98.67,345.26 98.67,344.74 "
           id="polygon123" />
        <path
           class="cls-3"
           d="M 81.89,353.82 76,350.39 c -0.51,-0.29 -0.44,-0.8 0.14,-1.13 L 90.43,341 a 2.16,2.16 0 0 1 2,-0.08 l 5.94,3.43 c 0.5,0.29 0.44,0.79 -0.14,1.13 l -14.34,8.28 a 2.19,2.19 0 0 1 -2,0.06 z"
           id="path125" />
        <ellipse
           class="cls-8"
           cx="76.610001"
           cy="351"
           rx="0.059999999"
           ry="0.11"
           transform="matrix(0.87,-0.5,0.5,0.87,-165.24,85.34)"
           id="ellipse127" />
        <ellipse
           class="cls-8"
           cx="76.900002"
           cy="351.16"
           rx="0.059999999"
           ry="0.11"
           transform="rotate(-30,76.900172,351.18534)"
           id="ellipse129" />
        <ellipse
           class="cls-8"
           cx="77.18"
           cy="351.32999"
           rx="0.059999999"
           ry="0.11"
           transform="rotate(-30,77.197396,351.34498)"
           id="ellipse131" />
        <ellipse
           class="cls-8"
           cx="77.470001"
           cy="351.48999"
           rx="0.059999999"
           ry="0.11"
           transform="rotate(-30,77.47596,351.49962)"
           id="ellipse133" />
        <ellipse
           class="cls-8"
           cx="79.919998"
           cy="352.91"
           rx="0.059999999"
           ry="0.11"
           transform="rotate(-30,79.935716,352.91871)"
           id="ellipse135" />
        <ellipse
           class="cls-8"
           cx="80.209999"
           cy="353.07999"
           rx="0.059999999"
           ry="0.11"
           transform="rotate(-30,80.209281,353.09201)"
           id="ellipse137" />
        <ellipse
           class="cls-8"
           cx="80.489998"
           cy="353.23999"
           rx="0.059999999"
           ry="0.11"
           transform="rotate(-30,80.506505,353.25165)"
           id="ellipse139" />
        <ellipse
           class="cls-8"
           cx="80.779999"
           cy="353.41"
           rx="0.059999999"
           ry="0.11"
           transform="rotate(-30,80.780069,353.42495)"
           id="ellipse141" />
        <path
           class="cls-8"
           d="M 79.09,352.55 78.3,352.1 a 0.23,0.23 0 0 1 -0.09,-0.18 v 0 c 0,-0.06 0,-0.09 0.09,-0.06 l 0.79,0.45 a 0.21,0.21 0 0 1 0.09,0.17 v 0 c 0,0.07 -0.04,0.1 -0.09,0.07 z"
           id="path143" />
        <path
           class="cls-8"
           d="m 96.87,346.56 -0.73,0.42 c 0,0 -0.08,0 -0.08,-0.06 v 0 a 0.23,0.23 0 0 1 0.08,-0.16 l 0.73,-0.42 c 0,0 0.09,0 0.09,0.06 v 0 a 0.19,0.19 0 0 1 -0.09,0.16 z"
           id="path145" />
        <path
           class="cls-8"
           d="m 95.75,347.21 -0.73,0.42 c 0,0 -0.08,0 -0.08,-0.06 v 0 a 0.19,0.19 0 0 1 0.08,-0.16 l 0.73,-0.42 c 0,0 0.09,0 0.09,0.06 v 0 a 0.2,0.2 0 0 1 -0.09,0.16 z"
           id="path147" />
        <path
           class="cls-4"
           d="M 81.89,353.74 76,350.31 c -0.51,-0.29 -0.44,-0.8 0.14,-1.14 l 14.34,-8.28 a 2.19,2.19 0 0 1 2,-0.08 l 5.94,3.43 c 0.5,0.29 0.44,0.8 -0.14,1.13 l -14.34,8.28 a 2.17,2.17 0 0 1 -2.05,0.09 z"
           id="path149" />
        <path
           class="cls-6"
           d="M 97.69,344.38 95.38,343 v 0 a 1.08,1.08 0 0 1 -1,0 c -0.28,-0.16 -0.28,-0.41 0,-0.57 v 0 l -2.31,-1.34 a 1.44,1.44 0 0 0 -1.28,0 l -14,8.06 c -0.35,0.21 -0.35,0.54 0,0.74 l 5.63,3.25 a 1.42,1.42 0 0 0 1.27,0 l 14,-8.07 c 0.36,-0.16 0.36,-0.49 0,-0.69 z"
           id="path151" />
        <path
           class="cls-21"
           d="M 97.69,344.38 95.38,343 v 0 a 1.08,1.08 0 0 1 -1,0 c -0.28,-0.16 -0.28,-0.41 0,-0.57 v 0 l -2.31,-1.34 a 1.44,1.44 0 0 0 -1.28,0 l -14,8.06 c -0.35,0.21 -0.35,0.54 0,0.74 l 5.63,3.25 a 1.42,1.42 0 0 0 1.27,0 l 14,-8.07 c 0.36,-0.16 0.36,-0.49 0,-0.69 z"
           id="path153"
           style="fill:url(#%D0%91%D0%B5%D0%B7%D1%8B%D0%BC%D1%8F%D0%BD%D0%BD%D1%8B%D0%B9_%D0%B3%D1%80%D0%B0%D0%B4%D0%B8%D0%B5%D0%BD%D1%82_15)" />
        <ellipse
           class="cls-6"
           cx="94.720001"
           cy="342.84"
           rx="0.27000001"
           ry="0.15000001"
           id="ellipse155" />
        <path
           class="cls-7"
           d="m 94.64,342.89 c 0,0 0,-0.07 0,-0.09 a 0.15,0.15 0 0 1 0.16,0 c 0,0 0,0.06 0,0.09 a 0.22,0.22 0 0 1 -0.16,0 z"
           id="path157" />
      </g>
      <path
         class="cls-14"
         d="m 91.12,352.91 c 0,0 3.14,-2.83 3,-6.58 -0.19,-2.61 -1.77,-0.73 -1.77,-0.73 l -1.59,2.88 a 8.44,8.44 0 0 1 -3,2.52 33.09,33.09 0 0 0 -3.32,0.49 c -1.95,0.38 -3.89,2.82 -3.89,2.82 l 2.45,1.93 z"
         id="path160" />
      <path
         class="cls-22"
         d="M 76.55,220.38 18.74,187 a 4.49,4.49 0 0 0 -3.85,-0.6 v 0 a 3,3 0 0 0 -0.69,0.4 l -6.45,3.69 5,5.87 v 24.1 a 13.29,13.29 0 0 0 6,10.41 l 18,11.31 4.89,11.21 -5.15,8.73 7.17,-4.1 6.81,-7.91 21.73,11.77 1.17,7 7.32,-4.18 0.2,-0.12 h 0.07 v 0 a 4.35,4.35 0 0 0 1.6,-3.79 v -30 a 13.29,13.29 0 0 0 -6.01,-10.41 z"
         id="path162" />
      <path
         class="cls-23"
         d="M 69.39,224.48 11.58,191.11 c -3.32,-1.92 -6,-0.37 -6,3.46 v 30 a 13.29,13.29 0 0 0 6,10.41 l 18,11.32 6.91,15.83 6.81,-7.91 26.08,14.14 c 3.32,1.91 6,0.36 6,-3.47 v -30 a 13.29,13.29 0 0 0 -5.99,-10.41 z"
         id="path164" />
      <path
         class="cls-13"
         d="M 404.05,34.26 346.12,0.82 a 4.49,4.49 0 0 0 -3.86,-0.61 v 0 a 2.65,2.65 0 0 0 -0.69,0.4 l -6.46,3.7 5,5.87 v 24.16 a 13.32,13.32 0 0 0 6,10.43 l 18.05,11.34 4.9,11.23 -5.15,8.75 7.19,-4.09 6.82,-7.93 21.76,11.8 1.18,7 7.33,-4.2 0.2,-0.11 h 0.07 v 0 a 4.33,4.33 0 0 0 1.61,-3.79 v -30 a 13.32,13.32 0 0 0 -6.02,-10.51 z"
         id="path166" />
      <path
         class="cls-24"
         d="M 404.05,34.26 346.12,0.82 a 4.49,4.49 0 0 0 -3.86,-0.61 v 0 a 2.65,2.65 0 0 0 -0.69,0.4 l -6.46,3.7 5,5.87 v 24.16 a 13.32,13.32 0 0 0 6,10.43 l 18.05,11.34 4.9,11.23 -5.15,8.75 7.19,-4.09 6.82,-7.93 21.76,11.8 1.18,7 7.33,-4.2 0.2,-0.11 h 0.07 v 0 a 4.33,4.33 0 0 0 1.61,-3.79 v -30 a 13.32,13.32 0 0 0 -6.02,-10.51 z"
         id="path168" />
      <path
         class="cls-13"
         d="M 396.86,38.37 338.94,4.93 c -3.32,-1.92 -6,-0.36 -6,3.48 v 30 a 13.32,13.32 0 0 0 6,10.43 l 18.06,11.38 6.93,15.87 6.82,-7.93 26.12,14.16 c 3.33,1.92 6,0.37 6,-3.47 v -30 a 13.31,13.31 0 0 0 -6.01,-10.48 z"
         id="path170" />
      <ellipse
         class="cls-5"
         cx="349.06"
         cy="31.93"
         rx="3.3900001"
         ry="5.8699999"
         transform="rotate(-30,349.064,31.931418)"
         id="ellipse172" />
      <ellipse
         class="cls-5"
         cx="366.23001"
         cy="41.849998"
         rx="3.3900001"
         ry="5.8699999"
         transform="matrix(0.87,-0.5,0.5,0.87,28.14,188.73)"
         id="ellipse174" />
      <ellipse
         class="cls-5"
         cx="383.41"
         cy="51.77"
         rx="3.3900001"
         ry="5.8699999"
         transform="rotate(-30,383.43095,51.760012)"
         id="ellipse176" />
      <path
         class="cls-25"
         d="m 304.48,96.86 c 0,-7 -4.93,-15.57 -11,-19.08 -3.24,-1.87 -6.14,-1.92 -8.15,-0.52 l -3.66,2.07 1.56,0.62 a 10.66,10.66 0 0 0 -0.77,4.19 c 0,7 4.93,15.56 11,19.08 a 11.58,11.58 0 0 0 3,1.25 v 2.19 l 4.72,-2.66 v 0 0 c 2.08,-1.19 3.3,-3.65 3.3,-7.14 z"
         id="path178" />
      <ellipse
         class="cls-26"
         cx="289.42001"
         cy="92.839996"
         rx="8.9899998"
         ry="15.58"
         transform="rotate(-30,289.42589,92.831434)"
         id="ellipse180" />
      <ellipse
         class="cls-27"
         cx="285.07999"
         cy="87.459999"
         rx="1.28"
         ry="2.22"
         transform="rotate(-30,285.10174,87.472781)"
         id="ellipse182" />
      <ellipse
         class="cls-27"
         cx="293.62"
         cy="92.389999"
         rx="1.28"
         ry="2.22"
         transform="rotate(-30,293.62258,92.395934)"
         id="ellipse184" />
      <path
         class="cls-27"
         d="m 285.08,94.26 c 0,0 1.44,3.94 4.34,5.61 2.9,1.67 4.6,-0.45 4.6,-0.45 z"
         id="path186" />
      <polygon
         class="cls-28"
         points="106.14,293.89 99.92,290.3 99.92,306.32 106.14,309.92 "
         id="polygon188" />
      <polygon
         class="cls-29"
         points="104.96,287.4 111.43,291.02 106.14,293.91 99.92,290.31 "
         id="polygon190" />
      <path
         class="cls-14"
         d="m 129.76,305.34 a 4.53,4.53 0 0 0 -2.2,-3.73 l -7.29,-4.21 1.16,-5.47 v -0.41 a 6,6 0 0 0 -0.24,-1.72 c -0.22,-0.72 -1,-2.43 -1.5,-2.08 l -7.63,4.41 c -0.46,0.13 -0.69,0.66 -0.69,1.46 V 307 a 5.15,5.15 0 0 0 2.31,4 l 10.41,6 c 0.92,0.53 1.73,0.33 2.08,-0.4 l 3.47,-7.48 a 2,2 0 0 0 0.12,-0.87 z"
         id="path192" />
      <polygon
         class="cls-14"
         points="122.43,312.52 122.1,319.2 125.77,317.05 "
         id="polygon194" />
      <path
         class="cls-30"
         d="m 126.26,307.38 a 4.56,4.56 0 0 0 -2.2,-3.73 l -7.29,-4.2 1.16,-5.48 v -0.4 a 6.07,6.07 0 0 0 -0.24,-1.73 c -0.22,-0.72 -1,-2.42 -1.5,-2.08 l -7.63,4.41 c -0.46,0.13 -0.69,0.67 -0.69,1.47 V 309 a 5.13,5.13 0 0 0 2.31,4 l 10.41,6 c 0.92,0.54 1.73,0.34 2.08,-0.4 l 3.47,-7.48 a 2,2 0 0 0 0.12,-0.87 z"
         id="path196" />
    </g>
  </g>
  <metadata
     id="metadata206">
    <rdf:RDF>
      <cc:Work
         rdf:about="">
        <dc:title>Chat_SVG</dc:title>
      </cc:Work>
    </rdf:RDF>
  </metadata>
</svg>
